<svg width="800" height="800" viewBox="0 0 32 32" xmlns="http://www.w3.org/2000/svg"><path d="M28 364.953a1.06 1.06 0 0 0-1.06 1.06 1.06 1.06 0 0 0 1.06 1.061 1.06 1.06 0 0 0 1.06-1.06 1.06 1.06 0 0 0-1.06-1.06Zm5.914-2.478a1.06 1.06 0 0 0-.676.306 1.06 1.06 0 0 0 0 1.5 1.06 1.06 0 0 0 1.5 0 1.06 1.06 0 0 0 0-1.5 1.06 1.06 0 0 0-.824-.306zm-11.978 0a1.06 1.06 0 0 0-.674.306 1.06 1.06 0 0 0 0 1.5 1.06 1.06 0 0 0 1.5 0 1.06 1.06 0 0 0 0-1.5 1.06 1.06 0 0 0-.826-.306zm14.533-5.993a1.06 1.06 0 0 0-1.06 1.061 1.06 1.06 0 0 0 1.06 1.06 1.06 1.06 0 0 0 1.062-1.06 1.06 1.06 0 0 0-1.062-1.06zm-16.938 0a1.06 1.06 0 0 0-1.062 1.061 1.06 1.06 0 0 0 1.062 1.06 1.06 1.06 0 0 0 1.06-1.06 1.06 1.06 0 0 0-1.06-1.06zM28 352.014a1 1 0 0 0-1 1v4.584l-2.707 2.709a1 1 0 0 0 0 1.414 1 1 0 0 0 1.414 0l3-3a1 1 0 0 0 .293-.707v-5a1 1 0 0 0-1-1zm5.914-1.518a1.06 1.06 0 0 0-.676.309 1.06 1.06 0 0 0 0 1.5 1.06 1.06 0 0 0 1.5 0 1.06 1.06 0 0 0 0-1.5 1.06 1.06 0 0 0-.824-.309zm-11.978 0a1.06 1.06 0 0 0-.674.309 1.06 1.06 0 0 0 0 1.5 1.06 1.06 0 0 0 1.5 0 1.06 1.06 0 0 0 0-1.5 1.06 1.06 0 0 0-.826-.309zM28 348.014a1.06 1.06 0 0 0-1.06 1.06 1.06 1.06 0 0 0 1.06 1.06 1.06 1.06 0 0 0 1.06-1.06 1.06 1.06 0 0 0-1.06-1.06Z" style="color:gray;fill:gray;fill-rule:evenodd;stroke-linecap:round;stroke-linejoin:round;stroke-miterlimit:4.1;-inkscape-stroke:none" transform="translate(-12 -340)"/><path d="M26 342.014a1 1 0 0 0-1 1 1 1 0 0 0 1 1h1v1.043c-6.425.511-11.5 5.902-11.5 12.457 0 6.891 5.608 12.5 12.5 12.5s12.5-5.609 12.5-12.5c0-2.496-.738-4.822-2.004-6.776a1 1 0 0 0 .111-.09l2.122-2.12a1 1 0 0 0 0-1.415l-2.829-2.828a1 1 0 0 0-1.414 0l-2.12 2.121a1 1 0 0 0-.178.254A12.408 12.408 0 0 0 29 345.057v-1.043h1a1 1 0 0 0 1-1 1 1 0 0 0-1-1zm11.193 4.392 1.414 1.414-.707.707-1.414-1.414zm-9.193.608c5.81 0 10.5 4.689 10.5 10.5 0 5.81-4.69 10.5-10.5 10.5s-10.5-4.69-10.5-10.5c0-5.811 4.69-10.5 10.5-10.5z" style="color:gray;fill:gray;fill-rule:evenodd;stroke-linecap:round;stroke-linejoin:round;stroke-miterlimit:4.1;-inkscape-stroke:none" transform="translate(-12 -340)"/></svg>